<?xml version="1.0" encoding="UTF-8"?>
<svg width="48" height="48" viewBox="0 0 48 48" fill="none" xmlns="http://www.w3.org/2000/svg" stroke-linecap="round" stroke-linejoin="round">
  <defs>
    <linearGradient id="cityGradient" x1="0%" y1="0%" x2="100%" y2="100%">
      <stop offset="0%" stop-color="#2563eb" stop-opacity="0.9" />
      <stop offset="100%" stop-color="#2563eb" stop-opacity="0.6" />
    </linearGradient>
    <clipPath id="circleClip">
      <circle cx="24" cy="24" r="18" />
    </clipPath>
  </defs>

  <circle 
    cx="24" 
    cy="24" 
    r="22" 
    fill="url(#cityGradient)" 
    opacity="0.1"
    stroke="#2563eb"
    stroke-width="1.5"
  />
  
  <g clip-path="url(#circleClip)">
    <rect x="10" y="18" width="4" height="20" rx="0" fill="#2563eb" opacity="0.7" />
    <rect x="16" y="12" width="4" height="26" rx="0" fill="#2563eb" opacity="0.8" />
    <rect x="22" y="8" width="4" height="30" rx="0" fill="#2563eb" opacity="0.9" />
    <rect x="28" y="14" width="4" height="24" rx="0" fill="#2563eb" opacity="0.8" />
    <rect x="34" y="19" width="4" height="19" rx="0" fill="#2563eb" opacity="0.7" />
  </g>
  
  <rect x="11" y="21" width="2" height="2" rx="0.5" fill="white" opacity="0.8" />
  <rect x="11" y="26" width="2" height="2" rx="0.5" fill="white" opacity="0.8" />
  <rect x="17" y="16" width="2" height="2" rx="0.5" fill="white" opacity="0.8" />
  <rect x="17" y="22" width="2" height="2" rx="0.5" fill="white" opacity="0.8" />
  <rect x="23" y="12" width="2" height="2" rx="0.5" fill="white" opacity="0.8" />
  <rect x="23" y="18" width="2" height="2" rx="0.5" fill="white" opacity="0.8" />
  <rect x="23" y="24" width="2" height="2" rx="0.5" fill="white" opacity="0.8" />
  <rect x="29" y="18" width="2" height="2" rx="0.5" fill="white" opacity="0.8" />
  <rect x="29" y="24" width="2" height="2" rx="0.5" fill="white" opacity="0.8" />
  <rect x="35" y="22" width="2" height="2" rx="0.5" fill="white" opacity="0.8" />
  <rect x="35" y="28" width="2" height="2" rx="0.5" fill="white" opacity="0.8" />
  
  <circle 
    cx="33" 
    cy="33" 
    r="10" 
    fill="#2563eb" 
    stroke="white" 
    stroke-width="1.5" 
  />
  
  <path 
    d="M29 33L32 36L38 30" 
    stroke="white" 
    stroke-width="2"
  />
</svg>
